<?xml version="1.0" standalone="no"?>
<!DOCTYPE svg PUBLIC "-//W3C//DTD SVG 20010904//EN"
 "http://www.w3.org/TR/2001/REC-SVG-20010904/DTD/svg10.dtd">
<svg version="1.0" xmlns="http://www.w3.org/2000/svg"
 width="1000.000000pt" height="1000.000000pt" viewBox="0 0 1000.000000 1000.000000"
 preserveAspectRatio="xMidYMid meet">
<metadata>
Created by potrace 1.14, written by Peter Selinger 2001-2017
</metadata>
<g transform="translate(0.000000,1000.000000) scale(0.100000,-0.100000)"
fill="#000000" stroke="none">
<path d="M0 5000 l0 -5000 5000 0 5000 0 0 5000 0 5000 -5000 0 -5000 0 0
-5000z m2626 2830 c531 -41 972 -177 1377 -424 649 -395 1096 -1039 1266
-1826 53 -245 66 -369 66 -655 0 -286 -13 -410 -66 -655 -113 -525 -354 -996
-695 -1360 -234 -251 -496 -443 -809 -595 -352 -171 -700 -261 -1139 -295 -73
-6 -531 -10 -1062 -10 l-934 0 1 2048 0 2047 497 400 496 400 -497 3 -497 2 0
465 0 465 934 0 c531 0 989 -4 1062 -10z m6914 -455 l0 -465 -955 0 -955 0 0
-2450 0 -2450 -500 0 -500 0 2 2047 3 2048 479 387 c263 212 486 394 495 402
14 15 -113 16 -1427 16 l-1442 0 0 465 0 465 2400 0 2400 0 0 -465z"/>
<path d="M1630 4930 l0 -1982 463 5 c267 3 496 10 542 16 324 47 563 134 790
286 508 341 807 871 857 1518 34 442 -78 917 -299 1269 -265 422 -693 722
-1168 817 -193 39 -258 43 -722 48 l-463 5 0 -1982z"/>
</g>
</svg>
